<svg width="144" height="26" viewBox="0 0 144 26" fill="none" xmlns="http://www.w3.org/2000/svg">
<g clip-path="url(#clip0_1_143)">
<path d="M133.607 12.5097C134.517 12.301 135.469 12.365 136.343 12.6935C137.218 13.0221 137.976 13.6006 138.524 14.3571L130.012 16.2825C130.306 14.4808 131.68 12.9451 133.607 12.5097ZM138.572 19.5949C137.899 20.5693 136.882 21.2533 135.726 21.5103C133.788 21.9493 131.853 21.1457 130.788 19.6328L139.326 17.701L140.716 17.3864L143.376 16.7851C143.36 16.2138 143.286 15.6455 143.154 15.0892C142.072 10.4949 137.394 7.63077 132.707 8.69106C128.02 9.75206 125.097 14.3364 126.18 18.93C127.261 23.5243 131.939 26.3892 136.626 25.3289C139.388 24.7033 141.536 22.8551 142.614 20.5022L138.572 19.5949ZM118.48 25.0965V12.9165H115.851V8.76684H118.48V3.05502H122.944V8.76684H126.298V12.9165H122.944V25.0965H118.48ZM109.952 25.0965H114.263V8.76684H109.952V25.0965ZM109.392 3.03787C109.392 1.52644 110.583 0.392513 112.126 0.392513C113.668 0.392513 114.825 1.52644 114.825 3.03787C114.825 4.55001 113.668 5.71754 112.126 5.71754C110.583 5.71754 109.392 4.55001 109.392 3.03787ZM108.451 8.8126C106.247 8.92699 104.947 9.26517 103.625 10.2232V8.76684H99.3163V25.0965H103.625V17.089C103.625 14.5695 104.24 13.136 108.451 12.9951V8.8126ZM84.428 17.1884C84.5353 19.5713 86.6094 21.5696 89.1482 21.5696C91.7235 21.5696 93.8333 19.4662 93.8333 16.9782C93.8333 14.5244 91.7235 12.4217 89.1482 12.4217C86.6101 12.4217 84.5353 14.4544 84.428 16.803V17.1884ZM80.224 25.0965V0.975206L84.5353 0V9.98227C85.8672 8.91698 87.4451 8.47013 89.1625 8.47013C94.07 8.47013 97.9958 12.2494 97.9958 16.991C97.9958 21.6976 94.0707 25.5455 89.1625 25.5455C87.4451 25.5455 85.8672 25.0994 84.5353 24.0341V25.0972L80.224 25.0965ZM71.0479 25.0965V12.8328H68.419V8.76684H71.0479V3.05074L75.5117 2.0405V8.76684H78.8649V12.8328H75.5117V25.0965H71.0479ZM63.1476 25.0965V16.3719C63.1476 13.211 61.4295 12.524 59.7115 12.524C57.9941 12.524 56.2768 13.1767 56.2768 16.3032V25.0965H51.9656V8.76684H56.2768V9.98156C57.2227 9.29448 58.3795 8.46942 60.6588 8.46942C64.3037 8.46942 67.4588 10.5657 67.4588 15.6848V25.0965H63.1476ZM41.0475 12.5097C42.9736 12.0735 44.8954 12.8636 45.9649 14.3571L37.4541 16.2825C37.7472 14.4808 39.1221 12.9451 41.0475 12.5097ZM46.0128 19.5949C45.3396 20.5693 44.3233 21.2533 43.1673 21.5103C42.2507 21.7202 41.2926 21.6539 40.4137 21.3198C39.5348 20.9857 38.7746 20.3986 38.2291 19.6328L46.7671 17.701L48.1577 17.3864L50.8167 16.7851C50.8006 16.2138 50.7263 15.6455 50.595 15.0892C49.5126 10.4949 44.8353 7.63077 40.148 8.69106C35.4608 9.75206 32.538 14.3364 33.6204 18.93C34.7029 23.5243 39.3794 26.3892 44.0674 25.3289C46.8293 24.7033 48.9778 22.8551 50.0552 20.5022L46.0128 19.5949ZM23.4644 25.0965L16.7688 8.76684H21.4661L25.708 19.8416L29.9842 8.76684H34.6814L27.9866 25.0965H23.4644ZM8.31586 12.5054C9.22643 12.2967 10.1783 12.3607 11.0529 12.6891C11.9275 13.0176 12.686 13.5963 13.2341 14.3528L4.72245 16.2789C5.01558 14.4772 6.39045 12.9415 8.31586 12.5054ZM13.2813 19.5906C12.6082 20.5653 11.5919 21.2496 10.4357 21.5067C8.49818 21.945 6.56347 21.1421 5.49747 19.6292L14.0355 17.6974L15.4261 17.3828L18.0851 16.7808C18.0688 16.2097 17.9946 15.6418 17.8634 15.0857C16.781 10.4913 12.1044 7.62648 7.41642 8.68677C2.72914 9.74777 -0.192186 14.3328 0.888831 18.9271C1.97128 23.5215 6.64855 26.3856 11.3359 25.3253C14.0977 24.7004 16.2462 22.8516 17.3244 20.4993L13.2813 19.5906Z" fill="black"/>
</g>
<defs>
<clipPath id="clip0_1_143">
<rect width="142.992" height="25.7386" fill="white" transform="translate(0.664001)"/>
</clipPath>
</defs>
</svg>
