<svg width="38" height="38" viewBox="0 0 38 38" fill="none" xmlns="http://www.w3.org/2000/svg">
<path d="M30.2873 17.0012L28.593 12.91L30.8701 10.2169L27.7831 7.12986L25.1047 9.41881L20.9266 7.70056L19.9657 4.04285H16.9492L15.9739 7.74901L11.8918 9.46976L9.26104 7.12986L6.17402 10.2169L8.41731 12.978L6.74898 17.0798L3.08701 17.9344V21.0214L6.79314 22.0332L8.51359 26.1145L6.17402 28.739L9.26104 31.826L12.0257 29.5729L16.0478 31.2276L16.9786 34.913H20.0656L20.9986 31.229L25.0899 29.5346C25.7718 30.0221 27.7831 31.826 27.7831 31.826L30.8701 28.739L28.5794 26.0369L30.2742 21.9445L33.957 20.9862L33.9572 17.9344L30.2873 17.0012Z" fill="black"/>
<path d="M12.9655 20.404L16.0525 23.491L23.77 15.7734" stroke="white" stroke-width="2.31526" stroke-linecap="round" stroke-linejoin="round"/>
</svg>
