<svg width="40" height="40" viewBox="0 0 40 40" fill="none" xmlns="http://www.w3.org/2000/svg">
<path d="M32 12.2551V27.745C32 28.1082 31.8032 28.4427 31.4857 28.6192L17.4857 36.3968C17.1837 36.5647 16.8163 36.5647 16.5143 36.3968L2.51435 28.6192C2.1969 28.4427 2 28.1082 2 27.745L1.99997 12.2551C1.99997 11.8919 2.19687 11.5573 2.51434 11.3809L16.5143 3.60313C16.8163 3.43535 17.1837 3.43535 17.4857 3.60313L31.4857 11.3809C31.803 11.5573 32 11.8919 32 12.2551Z" stroke="#B50000" stroke-width="2.5" stroke-linecap="round" stroke-linejoin="round"/>
<path d="M2.88074 12.156L16.5143 19.7302C16.8163 19.898 17.1837 19.898 17.4857 19.7302L31.1667 12.1296" stroke="#B50000" stroke-width="2.5" stroke-linecap="round" stroke-linejoin="round"/>
<path d="M17 35V20" stroke="#B50000" stroke-width="2.5" stroke-linecap="round" stroke-linejoin="round"/>
</svg>
