<svg width="40" height="40" viewBox="0 0 40 40" fill="none" xmlns="http://www.w3.org/2000/svg">
<path d="M32.704 17.3257L30.8745 12.908L33.3333 10L30 6.66668L27.1078 9.13826L22.5963 7.28291L21.5588 3.33334H18.3017L17.2485 7.33523L12.8407 9.19328L10 6.66668L6.66668 10L9.08896 12.9814L7.28751 17.4105L3.33334 18.3333V21.6667L7.33519 22.7592L9.19293 27.1662L6.66668 30L10 33.3333L12.9853 30.9005L17.3283 32.6872L18.3333 36.6667H21.6667L22.6742 32.6887L27.0918 30.8592C27.8282 31.3855 30 33.3333 30 33.3333L33.3333 30L30.8598 27.0823L32.6898 22.6633L36.6665 21.6287L36.6667 18.3333L32.704 17.3257Z" fill="black"/>
<path d="M14 21L17.3333 24.3333L25.6667 16" stroke="white" stroke-width="2.5" stroke-linecap="round" stroke-linejoin="round"/>
</svg>
