<svg width="40" height="40" viewBox="0 0 40 40" fill="none" xmlns="http://www.w3.org/2000/svg">
<path d="M2.33331 20V30C2.33331 30 2.33331 35 14 35C25.6666 35 25.6666 30 25.6666 30V20" stroke="#B50000" stroke-width="2.5"/>
<path d="M2.33331 10V20C2.33331 20 2.33331 25 14 25C25.6666 25 25.6666 20 25.6666 20V10" stroke="#B50000" stroke-width="2.5"/>
<path d="M14 5C25.6666 5 25.6666 10 25.6666 10C25.6666 10 25.6666 15 14 15C2.33331 15 2.33331 10 2.33331 10C2.33331 10 2.33331 5 14 5Z" stroke="#B50000" stroke-width="2.5"/>
</svg>
