<svg width="40" height="40" viewBox="0 0 40 40" fill="none" xmlns="http://www.w3.org/2000/svg">
<path d="M1.66669 31.6667V8.33333C1.66669 6.49238 3.15907 5 5.00002 5H27.3334C27.8857 5 28.3334 5.44772 28.3334 6V27.8572" stroke="#B50000" stroke-width="2.5" stroke-linecap="round"/>
<path d="M21.6667 14.633C21.6667 15.6353 21.2708 16.5981 20.5638 17.3102C18.9365 18.9502 17.3583 20.6602 15.6702 22.2405C15.2833 22.5975 14.6695 22.5845 14.2992 22.2114L9.43583 17.3102C7.96583 15.8288 7.96583 13.4371 9.43583 11.9557C10.9203 10.4597 13.3387 10.4597 14.823 11.9557L14.9998 12.1338L15.1765 11.9558C15.8883 11.2381 16.8577 10.8334 17.8702 10.8334C18.8828 10.8334 19.8522 11.2381 20.5638 11.9557C21.2708 12.6679 21.6667 13.6306 21.6667 14.633Z" stroke="#B50000" stroke-width="2.5" stroke-linejoin="round"/>
<path d="M5 28.3334H28.3333" stroke="#B50000" stroke-width="2.5" stroke-linecap="round"/>
<path d="M5 35H28.3333" stroke="#B50000" stroke-width="2.5" stroke-linecap="round"/>
<path d="M5.00002 35C3.15907 35 1.66669 33.5077 1.66669 31.6667C1.66669 29.8257 3.15907 28.3334 5.00002 28.3334" stroke="#B50000" stroke-width="2.5" stroke-linecap="round" stroke-linejoin="round"/>
</svg>
