<svg width="33" height="33" viewBox="0 0 33 33" fill="none" xmlns="http://www.w3.org/2000/svg">
<g clip-path="url(#clip0_22_14)">
<path d="M29.077 13.8524L27.2658 9.47892L29.7 6.6L26.4 3.3L23.5368 5.74687L19.0704 3.91007L18.0432 0H14.8186L13.776 3.96186L9.41228 5.80133L6.6 3.3L3.3 6.6L5.69806 9.5516L3.91462 13.9364L0 14.85V18.15L3.96183 19.2316L5.80099 23.5945L3.3 26.4L6.6 29.7L9.55541 27.2915L13.8551 29.0603L14.85 33H18.15L19.1474 29.0618L23.5209 27.2506C24.2499 27.7716 26.4 29.7 26.4 29.7L29.7 26.4L27.2512 23.5115L29.0629 19.1367L32.9998 18.1124L33 14.85L29.077 13.8524Z" fill="#B50000"/>
<path d="M10.6765 17.1471L13.9117 20.3824L22 12.2941" stroke="white" stroke-width="2.5" stroke-linecap="round" stroke-linejoin="round"/>
</g>
<defs>
<clipPath id="clip0_22_14">
<rect width="33" height="33" fill="white"/>
</clipPath>
</defs>
</svg>
